<?xml version="1.0" encoding="UTF-8" standalone="no"?>
<!DOCTYPE svg PUBLIC "-//W3C//DTD SVG 1.1//EN"
 "http://www.w3.org/Graphics/SVG/1.1/DTD/svg11.dtd">
<!-- Generated by graphviz version 2.38.0 (20140413.2041)
 -->
<!-- Title: controllers_diagram Pages: 1 -->
<svg width="1380pt" height="1227pt"
 viewBox="0.00 0.00 1380.16 1226.53" xmlns="http://www.w3.org/2000/svg" xmlns:xlink="http://www.w3.org/1999/xlink">
<g id="graph0" class="graph" transform="scale(1 1) rotate(0) translate(586.705 639.5)">
<title>controllers_diagram</title>
<polygon fill="none" stroke="none" points="-586.705,587.028 -586.705,-639.5 793.45,-639.5 793.45,587.028 -586.705,587.028"/>
<!-- _diagram_info -->
<g id="node1" class="node"><title>_diagram_info</title>
<text text-anchor="start" x="590.55" y="-112.1" font-family="Times,serif" font-size="13.00">Controllers diagram</text>
<text text-anchor="start" x="590.55" y="-99.1" font-family="Times,serif" font-size="13.00">Date: Nov 26 2016 &#45; 22:25</text>
<text text-anchor="start" x="590.55" y="-86.1" font-family="Times,serif" font-size="13.00">Migration version: 20161123210806</text>
<text text-anchor="start" x="590.55" y="-73.1" font-family="Times,serif" font-size="13.00">Generated by RailRoady 1.5.2</text>
<text text-anchor="start" x="590.55" y="-60.1" font-family="Times,serif" font-size="13.00">http://railroady.prestonlee.com</text>
</g>
<!-- ApplicationController -->
<g id="node2" class="node"><title>ApplicationController</title>
<path fill="none" stroke="black" d="M-7.20578,-105.671C-7.20578,-105.671 108.436,-105.671 108.436,-105.671 114.436,-105.671 120.436,-111.671 120.436,-117.671 120.436,-117.671 120.436,-185.671 120.436,-185.671 120.436,-191.671 114.436,-197.671 108.436,-197.671 108.436,-197.671 -7.20578,-197.671 -7.20578,-197.671 -13.2058,-197.671 -19.2058,-191.671 -19.2058,-185.671 -19.2058,-185.671 -19.2058,-117.671 -19.2058,-117.671 -19.2058,-111.671 -13.2058,-105.671 -7.20578,-105.671"/>
<text text-anchor="middle" x="50.615" y="-182.471" font-family="Times,serif" font-size="14.00">ApplicationController</text>
<polyline fill="none" stroke="black" points="-19.2058,-175.671 120.436,-175.671 "/>
<polyline fill="none" stroke="black" points="-19.2058,-151.671 120.436,-151.671 "/>
<polyline fill="none" stroke="black" points="-19.2058,-127.671 120.436,-127.671 "/>
<text text-anchor="start" x="-11.2058" y="-112.471" font-family="Times,serif" font-size="14.00">_layout</text>
</g>
<!-- FollowsController -->
<g id="node3" class="node"><title>FollowsController</title>
<path fill="none" stroke="black" d="M310.248,-399.56C310.248,-399.56 404.917,-399.56 404.917,-399.56 410.917,-399.56 416.917,-405.56 416.917,-411.56 416.917,-411.56 416.917,-505.56 416.917,-505.56 416.917,-511.56 410.917,-517.56 404.917,-517.56 404.917,-517.56 310.248,-517.56 310.248,-517.56 304.248,-517.56 298.248,-511.56 298.248,-505.56 298.248,-505.56 298.248,-411.56 298.248,-411.56 298.248,-405.56 304.248,-399.56 310.248,-399.56"/>
<text text-anchor="middle" x="357.582" y="-502.36" font-family="Times,serif" font-size="14.00">FollowsController</text>
<polyline fill="none" stroke="black" points="298.248,-495.56 416.917,-495.56 "/>
<text text-anchor="start" x="306.248" y="-480.36" font-family="Times,serif" font-size="14.00">create</text>
<text text-anchor="start" x="306.248" y="-466.36" font-family="Times,serif" font-size="14.00">destroy</text>
<text text-anchor="start" x="306.248" y="-452.36" font-family="Times,serif" font-size="14.00">index</text>
<polyline fill="none" stroke="black" points="298.248,-445.56 416.917,-445.56 "/>
<polyline fill="none" stroke="black" points="298.248,-421.56 416.917,-421.56 "/>
<text text-anchor="start" x="306.248" y="-406.36" font-family="Times,serif" font-size="14.00">_layout</text>
</g>
<!-- ApplicationController&#45;&gt;FollowsController -->
<g id="edge1" class="edge"><title>ApplicationController&#45;&gt;FollowsController</title>
<path fill="none" stroke="black" d="M96.9035,-197.947C150.751,-251.781 239.758,-340.766 298.538,-399.53"/>
</g>
<!-- LikesController -->
<g id="node4" class="node"><title>LikesController</title>
<path fill="none" stroke="black" d="M376.825,-24.6963C376.825,-24.6963 457.473,-24.6963 457.473,-24.6963 463.473,-24.6963 469.473,-30.6963 469.473,-36.6963 469.473,-36.6963 469.473,-214.696 469.473,-214.696 469.473,-220.696 463.473,-226.696 457.473,-226.696 457.473,-226.696 376.825,-226.696 376.825,-226.696 370.825,-226.696 364.825,-220.696 364.825,-214.696 364.825,-214.696 364.825,-36.6963 364.825,-36.6963 364.825,-30.6963 370.825,-24.6963 376.825,-24.6963"/>
<text text-anchor="middle" x="417.149" y="-211.496" font-family="Times,serif" font-size="14.00">LikesController</text>
<polyline fill="none" stroke="black" points="364.825,-204.696 469.473,-204.696 "/>
<text text-anchor="start" x="372.825" y="-189.496" font-family="Times,serif" font-size="14.00">index</text>
<text text-anchor="start" x="372.825" y="-175.496" font-family="Times,serif" font-size="14.00">destroy</text>
<text text-anchor="start" x="372.825" y="-161.496" font-family="Times,serif" font-size="14.00">edit</text>
<text text-anchor="start" x="372.825" y="-147.496" font-family="Times,serif" font-size="14.00">create</text>
<text text-anchor="start" x="372.825" y="-133.496" font-family="Times,serif" font-size="14.00">new</text>
<text text-anchor="start" x="372.825" y="-119.496" font-family="Times,serif" font-size="14.00">show</text>
<text text-anchor="start" x="372.825" y="-105.496" font-family="Times,serif" font-size="14.00">update</text>
<polyline fill="none" stroke="black" points="364.825,-98.6963 469.473,-98.6963 "/>
<polyline fill="none" stroke="black" points="364.825,-74.6963 469.473,-74.6963 "/>
<text text-anchor="start" x="372.825" y="-59.4963" font-family="Times,serif" font-size="14.00">_layout</text>
<text text-anchor="start" x="372.825" y="-45.4963" font-family="Times,serif" font-size="14.00">like_params</text>
<text text-anchor="start" x="372.825" y="-31.4963" font-family="Times,serif" font-size="14.00">set_like</text>
</g>
<!-- ApplicationController&#45;&gt;LikesController -->
<g id="edge2" class="edge"><title>ApplicationController&#45;&gt;LikesController</title>
<path fill="none" stroke="black" d="M120.853,-146.693C192.048,-141.648 300.581,-133.957 364.639,-129.417"/>
</g>
<!-- NewsFeedController -->
<g id="node5" class="node"><title>NewsFeedController</title>
<path fill="none" stroke="black" d="M-490.894,-413.028C-490.894,-413.028 -382.252,-413.028 -382.252,-413.028 -376.252,-413.028 -370.252,-419.028 -370.252,-425.028 -370.252,-425.028 -370.252,-491.028 -370.252,-491.028 -370.252,-497.028 -376.252,-503.028 -382.252,-503.028 -382.252,-503.028 -490.894,-503.028 -490.894,-503.028 -496.894,-503.028 -502.894,-497.028 -502.894,-491.028 -502.894,-491.028 -502.894,-425.028 -502.894,-425.028 -502.894,-419.028 -496.894,-413.028 -490.894,-413.028"/>
<text text-anchor="middle" x="-436.573" y="-487.828" font-family="Times,serif" font-size="14.00">NewsFeedController</text>
<polyline fill="none" stroke="black" points="-502.894,-481.028 -370.252,-481.028 "/>
<text text-anchor="start" x="-494.894" y="-465.828" font-family="Times,serif" font-size="14.00">index</text>
<polyline fill="none" stroke="black" points="-502.894,-459.028 -370.252,-459.028 "/>
<polyline fill="none" stroke="black" points="-502.894,-435.028 -370.252,-435.028 "/>
<text text-anchor="start" x="-494.894" y="-419.828" font-family="Times,serif" font-size="14.00">_layout</text>
</g>
<!-- ApplicationController&#45;&gt;NewsFeedController -->
<g id="edge3" class="edge"><title>ApplicationController&#45;&gt;NewsFeedController</title>
<path fill="none" stroke="black" d="M-19.4464,-195.727C-113.185,-254.672 -278.232,-358.459 -370.106,-416.231"/>
</g>
<!-- PostsController -->
<g id="node6" class="node"><title>PostsController</title>
<path fill="none" stroke="black" d="M-85.3997,-360.377C-85.3997,-360.377 -6.28247,-360.377 -6.28247,-360.377 -0.282467,-360.377 5.71753,-366.377 5.71753,-372.377 5.71753,-372.377 5.71753,-550.377 5.71753,-550.377 5.71753,-556.377 -0.282467,-562.377 -6.28247,-562.377 -6.28247,-562.377 -85.3997,-562.377 -85.3997,-562.377 -91.3997,-562.377 -97.3997,-556.377 -97.3997,-550.377 -97.3997,-550.377 -97.3997,-372.377 -97.3997,-372.377 -97.3997,-366.377 -91.3997,-360.377 -85.3997,-360.377"/>
<text text-anchor="middle" x="-45.8411" y="-547.177" font-family="Times,serif" font-size="14.00">PostsController</text>
<polyline fill="none" stroke="black" points="-97.3997,-540.377 5.71753,-540.377 "/>
<text text-anchor="start" x="-89.3997" y="-525.177" font-family="Times,serif" font-size="14.00">index</text>
<text text-anchor="start" x="-89.3997" y="-511.177" font-family="Times,serif" font-size="14.00">destroy</text>
<text text-anchor="start" x="-89.3997" y="-497.177" font-family="Times,serif" font-size="14.00">edit</text>
<text text-anchor="start" x="-89.3997" y="-483.177" font-family="Times,serif" font-size="14.00">create</text>
<text text-anchor="start" x="-89.3997" y="-469.177" font-family="Times,serif" font-size="14.00">new</text>
<text text-anchor="start" x="-89.3997" y="-455.177" font-family="Times,serif" font-size="14.00">show</text>
<text text-anchor="start" x="-89.3997" y="-441.177" font-family="Times,serif" font-size="14.00">update</text>
<polyline fill="none" stroke="black" points="-97.3997,-434.377 5.71753,-434.377 "/>
<polyline fill="none" stroke="black" points="-97.3997,-410.377 5.71753,-410.377 "/>
<text text-anchor="start" x="-89.3997" y="-395.177" font-family="Times,serif" font-size="14.00">_layout</text>
<text text-anchor="start" x="-89.3997" y="-381.177" font-family="Times,serif" font-size="14.00">post_params</text>
<text text-anchor="start" x="-89.3997" y="-367.177" font-family="Times,serif" font-size="14.00">set_post</text>
</g>
<!-- ApplicationController&#45;&gt;PostsController -->
<g id="edge4" class="edge"><title>ApplicationController&#45;&gt;PostsController</title>
<path fill="none" stroke="black" d="M36.2787,-197.702C22.9751,-240.418 2.71424,-305.473 -14.3533,-360.275"/>
</g>
<!-- DeviseController -->
<g id="node13" class="node"><title>DeviseController</title>
<path fill="none" stroke="black" d="M-188.993,306.297C-188.993,306.297 -18.1171,306.297 -18.1171,306.297 -12.1171,306.297 -6.11713,300.297 -6.11713,294.297 -6.11713,294.297 -6.11713,-49.7027 -6.11713,-49.7027 -6.11713,-55.7027 -12.1171,-61.7027 -18.1171,-61.7027 -18.1171,-61.7027 -188.993,-61.7027 -188.993,-61.7027 -194.993,-61.7027 -200.993,-55.7027 -200.993,-49.7027 -200.993,-49.7027 -200.993,294.297 -200.993,294.297 -200.993,300.297 -194.993,306.297 -188.993,306.297"/>
<text text-anchor="middle" x="-103.555" y="-46.5027" font-family="Times,serif" font-size="14.00">DeviseController</text>
<polyline fill="none" stroke="black" points="-200.993,-39.7027 -6.11713,-39.7027 "/>
<text text-anchor="start" x="-192.993" y="-24.5027" font-family="Times,serif" font-size="14.00">_prefixes</text>
<polyline fill="none" stroke="black" points="-200.993,-17.7027 -6.11713,-17.7027 "/>
<text text-anchor="start" x="-192.993" y="-2.50272" font-family="Times,serif" font-size="14.00">unknown_action!</text>
<text text-anchor="start" x="-192.993" y="11.4973" font-family="Times,serif" font-size="14.00">clean_up_passwords</text>
<text text-anchor="start" x="-192.993" y="25.4973" font-family="Times,serif" font-size="14.00">devise_i18n_options</text>
<text text-anchor="start" x="-192.993" y="39.4973" font-family="Times,serif" font-size="14.00">devise_mapping</text>
<text text-anchor="start" x="-192.993" y="53.4973" font-family="Times,serif" font-size="14.00">find_message</text>
<text text-anchor="start" x="-192.993" y="67.4973" font-family="Times,serif" font-size="14.00">navigational_formats</text>
<text text-anchor="start" x="-192.993" y="81.4973" font-family="Times,serif" font-size="14.00">require_no_authentication</text>
<text text-anchor="start" x="-192.993" y="95.4973" font-family="Times,serif" font-size="14.00">resource</text>
<text text-anchor="start" x="-192.993" y="109.497" font-family="Times,serif" font-size="14.00">resource=</text>
<text text-anchor="start" x="-192.993" y="123.497" font-family="Times,serif" font-size="14.00">resource_class</text>
<text text-anchor="start" x="-192.993" y="137.497" font-family="Times,serif" font-size="14.00">resource_name</text>
<text text-anchor="start" x="-192.993" y="151.497" font-family="Times,serif" font-size="14.00">resource_params</text>
<text text-anchor="start" x="-192.993" y="165.497" font-family="Times,serif" font-size="14.00">respond_with_navigational</text>
<text text-anchor="start" x="-192.993" y="179.497" font-family="Times,serif" font-size="14.00">scope_name</text>
<text text-anchor="start" x="-192.993" y="193.497" font-family="Times,serif" font-size="14.00">set_flash_message</text>
<text text-anchor="start" x="-192.993" y="207.497" font-family="Times,serif" font-size="14.00">set_flash_message!</text>
<text text-anchor="start" x="-192.993" y="221.497" font-family="Times,serif" font-size="14.00">set_minimum_password_length</text>
<text text-anchor="start" x="-192.993" y="235.497" font-family="Times,serif" font-size="14.00">signed_in_resource</text>
<text text-anchor="start" x="-192.993" y="249.497" font-family="Times,serif" font-size="14.00">successfully_sent?</text>
<text text-anchor="start" x="-192.993" y="263.497" font-family="Times,serif" font-size="14.00">translation_scope</text>
<text text-anchor="start" x="-192.993" y="277.497" font-family="Times,serif" font-size="14.00">assert_is_devise_resource!</text>
<polyline fill="none" stroke="black" points="-200.993,284.297 -6.11713,284.297 "/>
<text text-anchor="start" x="-192.993" y="299.497" font-family="Times,serif" font-size="14.00">_layout</text>
</g>
<!-- ApplicationController&#45;&gt;DeviseController -->
<g id="edge11" class="edge"><title>ApplicationController&#45;&gt;DeviseController</title>
<path fill="none" stroke="black" d="M24.6365,-105.505C15.7117,-89.6457 5.12349,-70.8299 -6.0842,-50.9133"/>
</g>
<!-- Devise::ConfirmationsController -->
<g id="node7" class="node"><title>Devise::ConfirmationsController</title>
<path fill="none" stroke="black" d="M-503.11,-93.3816C-503.11,-93.3816 -218.737,-93.3816 -218.737,-93.3816 -212.737,-93.3816 -206.737,-99.3816 -206.737,-105.382 -206.737,-105.382 -206.737,-225.382 -206.737,-225.382 -206.737,-231.382 -212.737,-237.382 -218.737,-237.382 -218.737,-237.382 -503.11,-237.382 -503.11,-237.382 -509.11,-237.382 -515.11,-231.382 -515.11,-225.382 -515.11,-225.382 -515.11,-105.382 -515.11,-105.382 -515.11,-99.3816 -509.11,-93.3816 -503.11,-93.3816"/>
<text text-anchor="middle" x="-360.923" y="-222.182" font-family="Times,serif" font-size="14.00">Devise::ConfirmationsController</text>
<polyline fill="none" stroke="black" points="-515.11,-215.382 -206.737,-215.382 "/>
<text text-anchor="start" x="-507.11" y="-200.182" font-family="Times,serif" font-size="14.00">create</text>
<text text-anchor="start" x="-507.11" y="-186.182" font-family="Times,serif" font-size="14.00">new</text>
<text text-anchor="start" x="-507.11" y="-172.182" font-family="Times,serif" font-size="14.00">show</text>
<polyline fill="none" stroke="black" points="-515.11,-165.382 -206.737,-165.382 "/>
<text text-anchor="start" x="-507.11" y="-150.182" font-family="Times,serif" font-size="14.00">after_confirmation_path_for</text>
<text text-anchor="start" x="-507.11" y="-136.182" font-family="Times,serif" font-size="14.00">after_resending_confirmation_instructions_path_for</text>
<text text-anchor="start" x="-507.11" y="-122.182" font-family="Times,serif" font-size="14.00">translation_scope</text>
<polyline fill="none" stroke="black" points="-515.11,-115.382 -206.737,-115.382 "/>
<text text-anchor="start" x="-507.11" y="-100.182" font-family="Times,serif" font-size="14.00">_layout</text>
</g>
<!-- Devise::OmniauthCallbacksController -->
<g id="node8" class="node"><title>Devise::OmniauthCallbacksController</title>
<path fill="none" stroke="black" d="M-570.705,177.113C-570.705,177.113 -363.305,177.113 -363.305,177.113 -357.305,177.113 -351.305,171.113 -351.305,165.113 -351.305,165.113 -351.305,45.1135 -351.305,45.1135 -351.305,39.1135 -357.305,33.1135 -363.305,33.1135 -363.305,33.1135 -570.705,33.1135 -570.705,33.1135 -576.705,33.1135 -582.705,39.1135 -582.705,45.1135 -582.705,45.1135 -582.705,165.113 -582.705,165.113 -582.705,171.113 -576.705,177.113 -570.705,177.113"/>
<text text-anchor="middle" x="-467.005" y="48.3135" font-family="Times,serif" font-size="14.00">Devise::OmniauthCallbacksController</text>
<polyline fill="none" stroke="black" points="-582.705,55.1135 -351.305,55.1135 "/>
<text text-anchor="start" x="-574.705" y="70.3135" font-family="Times,serif" font-size="14.00">failure</text>
<text text-anchor="start" x="-574.705" y="84.3135" font-family="Times,serif" font-size="14.00">passthru</text>
<polyline fill="none" stroke="black" points="-582.705,91.1135 -351.305,91.1135 "/>
<text text-anchor="start" x="-574.705" y="106.313" font-family="Times,serif" font-size="14.00">after_omniauth_failure_path_for</text>
<text text-anchor="start" x="-574.705" y="120.313" font-family="Times,serif" font-size="14.00">failed_strategy</text>
<text text-anchor="start" x="-574.705" y="134.313" font-family="Times,serif" font-size="14.00">failure_message</text>
<text text-anchor="start" x="-574.705" y="148.313" font-family="Times,serif" font-size="14.00">translation_scope</text>
<polyline fill="none" stroke="black" points="-582.705,155.113 -351.305,155.113 "/>
<text text-anchor="start" x="-574.705" y="170.313" font-family="Times,serif" font-size="14.00">_layout</text>
</g>
<!-- Devise::PasswordsController -->
<g id="node9" class="node"><title>Devise::PasswordsController</title>
<path fill="none" stroke="black" d="M157.456,232.628C157.456,232.628 445.719,232.628 445.719,232.628 451.719,232.628 457.719,226.628 457.719,220.628 457.719,220.628 457.719,58.6281 457.719,58.6281 457.719,52.6281 451.719,46.6281 445.719,46.6281 445.719,46.6281 157.456,46.6281 157.456,46.6281 151.456,46.6281 145.456,52.6281 145.456,58.6281 145.456,58.6281 145.456,220.628 145.456,220.628 145.456,226.628 151.456,232.628 157.456,232.628"/>
<text text-anchor="middle" x="301.588" y="61.8281" font-family="Times,serif" font-size="14.00">Devise::PasswordsController</text>
<polyline fill="none" stroke="black" points="145.456,68.6281 457.719,68.6281 "/>
<text text-anchor="start" x="153.456" y="83.8281" font-family="Times,serif" font-size="14.00">create</text>
<text text-anchor="start" x="153.456" y="97.8281" font-family="Times,serif" font-size="14.00">edit</text>
<text text-anchor="start" x="153.456" y="111.828" font-family="Times,serif" font-size="14.00">new</text>
<text text-anchor="start" x="153.456" y="125.828" font-family="Times,serif" font-size="14.00">update</text>
<polyline fill="none" stroke="black" points="145.456,132.628 457.719,132.628 "/>
<text text-anchor="start" x="153.456" y="147.828" font-family="Times,serif" font-size="14.00">after_resetting_password_path_for</text>
<text text-anchor="start" x="153.456" y="161.828" font-family="Times,serif" font-size="14.00">after_sending_reset_password_instructions_path_for</text>
<text text-anchor="start" x="153.456" y="175.828" font-family="Times,serif" font-size="14.00">assert_reset_token_passed</text>
<text text-anchor="start" x="153.456" y="189.828" font-family="Times,serif" font-size="14.00">translation_scope</text>
<text text-anchor="start" x="153.456" y="203.828" font-family="Times,serif" font-size="14.00">unlockable?</text>
<polyline fill="none" stroke="black" points="145.456,210.628 457.719,210.628 "/>
<text text-anchor="start" x="153.456" y="225.828" font-family="Times,serif" font-size="14.00">_layout</text>
</g>
<!-- Devise::RegistrationsController -->
<g id="node10" class="node"><title>Devise::RegistrationsController</title>
<path fill="none" stroke="black" d="M-495.67,582.528C-495.67,582.528 -320.952,582.528 -320.952,582.528 -314.952,582.528 -308.952,576.528 -308.952,570.528 -308.952,570.528 -308.952,296.528 -308.952,296.528 -308.952,290.528 -314.952,284.528 -320.952,284.528 -320.952,284.528 -495.67,284.528 -495.67,284.528 -501.67,284.528 -507.67,290.528 -507.67,296.528 -507.67,296.528 -507.67,570.528 -507.67,570.528 -507.67,576.528 -501.67,582.528 -495.67,582.528"/>
<text text-anchor="middle" x="-408.311" y="299.728" font-family="Times,serif" font-size="14.00">Devise::RegistrationsController</text>
<polyline fill="none" stroke="black" points="-507.67,306.528 -308.952,306.528 "/>
<text text-anchor="start" x="-499.67" y="321.728" font-family="Times,serif" font-size="14.00">cancel</text>
<text text-anchor="start" x="-499.67" y="335.728" font-family="Times,serif" font-size="14.00">create</text>
<text text-anchor="start" x="-499.67" y="349.728" font-family="Times,serif" font-size="14.00">destroy</text>
<text text-anchor="start" x="-499.67" y="363.728" font-family="Times,serif" font-size="14.00">edit</text>
<text text-anchor="start" x="-499.67" y="377.728" font-family="Times,serif" font-size="14.00">new</text>
<text text-anchor="start" x="-499.67" y="391.728" font-family="Times,serif" font-size="14.00">update</text>
<polyline fill="none" stroke="black" points="-507.67,398.528 -308.952,398.528 "/>
<text text-anchor="start" x="-499.67" y="413.728" font-family="Times,serif" font-size="14.00">update_resource</text>
<text text-anchor="start" x="-499.67" y="427.728" font-family="Times,serif" font-size="14.00">after_inactive_sign_up_path_for</text>
<text text-anchor="start" x="-499.67" y="441.728" font-family="Times,serif" font-size="14.00">after_sign_up_path_for</text>
<text text-anchor="start" x="-499.67" y="455.728" font-family="Times,serif" font-size="14.00">after_update_path_for</text>
<text text-anchor="start" x="-499.67" y="469.728" font-family="Times,serif" font-size="14.00">authenticate_scope!</text>
<text text-anchor="start" x="-499.67" y="483.728" font-family="Times,serif" font-size="14.00">build_resource</text>
<text text-anchor="start" x="-499.67" y="497.728" font-family="Times,serif" font-size="14.00">sign_up</text>
<text text-anchor="start" x="-499.67" y="511.728" font-family="Times,serif" font-size="14.00">sign_up_params</text>
<text text-anchor="start" x="-499.67" y="525.728" font-family="Times,serif" font-size="14.00">translation_scope</text>
<text text-anchor="start" x="-499.67" y="539.728" font-family="Times,serif" font-size="14.00">update_needs_confirmation?</text>
<text text-anchor="start" x="-499.67" y="553.728" font-family="Times,serif" font-size="14.00">account_update_params</text>
<polyline fill="none" stroke="black" points="-507.67,560.528 -308.952,560.528 "/>
<text text-anchor="start" x="-499.67" y="575.728" font-family="Times,serif" font-size="14.00">_layout</text>
</g>
<!-- Devise::SessionsController -->
<g id="node11" class="node"><title>Devise::SessionsController</title>
<path fill="none" stroke="black" d="M-77.7806,534.566C-77.7806,534.566 66.654,534.566 66.654,534.566 72.654,534.566 78.654,528.566 78.654,522.566 78.654,522.566 78.654,346.566 78.654,346.566 78.654,340.566 72.654,334.566 66.654,334.566 66.654,334.566 -77.7806,334.566 -77.7806,334.566 -83.7806,334.566 -89.7806,340.566 -89.7806,346.566 -89.7806,346.566 -89.7806,522.566 -89.7806,522.566 -89.7806,528.566 -83.7806,534.566 -77.7806,534.566"/>
<text text-anchor="middle" x="-5.56333" y="349.766" font-family="Times,serif" font-size="14.00">Devise::SessionsController</text>
<polyline fill="none" stroke="black" points="-89.7806,356.566 78.654,356.566 "/>
<text text-anchor="start" x="-81.7806" y="371.766" font-family="Times,serif" font-size="14.00">create</text>
<text text-anchor="start" x="-81.7806" y="385.766" font-family="Times,serif" font-size="14.00">destroy</text>
<text text-anchor="start" x="-81.7806" y="399.766" font-family="Times,serif" font-size="14.00">new</text>
<polyline fill="none" stroke="black" points="-89.7806,406.566 78.654,406.566 "/>
<text text-anchor="start" x="-81.7806" y="421.766" font-family="Times,serif" font-size="14.00">auth_options</text>
<text text-anchor="start" x="-81.7806" y="435.766" font-family="Times,serif" font-size="14.00">serialize_options</text>
<text text-anchor="start" x="-81.7806" y="449.766" font-family="Times,serif" font-size="14.00">sign_in_params</text>
<text text-anchor="start" x="-81.7806" y="463.766" font-family="Times,serif" font-size="14.00">translation_scope</text>
<polyline fill="none" stroke="black" points="-89.7806,470.566 78.654,470.566 "/>
<text text-anchor="start" x="-81.7806" y="485.766" font-family="Times,serif" font-size="14.00">_layout</text>
<text text-anchor="start" x="-81.7806" y="499.766" font-family="Times,serif" font-size="14.00">all_signed_out?</text>
<text text-anchor="start" x="-81.7806" y="513.766" font-family="Times,serif" font-size="14.00">respond_to_on_destroy</text>
<text text-anchor="start" x="-81.7806" y="527.766" font-family="Times,serif" font-size="14.00">verify_signed_out_user</text>
</g>
<!-- Devise::UnlocksController -->
<g id="node12" class="node"><title>Devise::UnlocksController</title>
<path fill="none" stroke="black" d="M266.629,501.824C266.629,501.824 506.684,501.824 506.684,501.824 512.684,501.824 518.684,495.824 518.684,489.824 518.684,489.824 518.684,369.824 518.684,369.824 518.684,363.824 512.684,357.824 506.684,357.824 506.684,357.824 266.629,357.824 266.629,357.824 260.629,357.824 254.629,363.824 254.629,369.824 254.629,369.824 254.629,489.824 254.629,489.824 254.629,495.824 260.629,501.824 266.629,501.824"/>
<text text-anchor="middle" x="386.657" y="373.024" font-family="Times,serif" font-size="14.00">Devise::UnlocksController</text>
<polyline fill="none" stroke="black" points="254.629,379.824 518.684,379.824 "/>
<text text-anchor="start" x="262.629" y="395.024" font-family="Times,serif" font-size="14.00">create</text>
<text text-anchor="start" x="262.629" y="409.024" font-family="Times,serif" font-size="14.00">new</text>
<text text-anchor="start" x="262.629" y="423.024" font-family="Times,serif" font-size="14.00">show</text>
<polyline fill="none" stroke="black" points="254.629,429.824 518.684,429.824 "/>
<text text-anchor="start" x="262.629" y="445.024" font-family="Times,serif" font-size="14.00">after_sending_unlock_instructions_path_for</text>
<text text-anchor="start" x="262.629" y="459.024" font-family="Times,serif" font-size="14.00">after_unlock_path_for</text>
<text text-anchor="start" x="262.629" y="473.024" font-family="Times,serif" font-size="14.00">translation_scope</text>
<polyline fill="none" stroke="black" points="254.629,479.824 518.684,479.824 "/>
<text text-anchor="start" x="262.629" y="495.024" font-family="Times,serif" font-size="14.00">_layout</text>
</g>
<!-- DeviseController&#45;&gt;Devise::ConfirmationsController -->
<g id="edge5" class="edge"><title>DeviseController&#45;&gt;Devise::ConfirmationsController</title>
<path fill="none" stroke="black" d="M-201.222,13.128C-233.075,-22.4767 -267.625,-61.0951 -296.414,-93.2753"/>
</g>
<!-- DeviseController&#45;&gt;Devise::OmniauthCallbacksController -->
<g id="edge6" class="edge"><title>DeviseController&#45;&gt;Devise::OmniauthCallbacksController</title>
<path fill="none" stroke="black" d="M-201.431,117.67C-247.581,115.488 -302.972,112.869 -351.198,110.589"/>
</g>
<!-- DeviseController&#45;&gt;Devise::PasswordsController -->
<g id="edge7" class="edge"><title>DeviseController&#45;&gt;Devise::PasswordsController</title>
<path fill="none" stroke="black" d="M-5.99779,126.471C39.3089,128.409 94.3028,130.761 145.191,132.938"/>
</g>
<!-- DeviseController&#45;&gt;Devise::RegistrationsController -->
<g id="edge8" class="edge"><title>DeviseController&#45;&gt;Devise::RegistrationsController</title>
<path fill="none" stroke="black" d="M-201.239,222.057C-235.624,257.172 -274.294,296.663 -308.825,331.928"/>
</g>
<!-- DeviseController&#45;&gt;Devise::SessionsController -->
<g id="edge9" class="edge"><title>DeviseController&#45;&gt;Devise::SessionsController</title>
<path fill="none" stroke="black" d="M-45.7031,306.653C-42.7611,316.029 -39.8631,325.264 -37.0536,334.217"/>
</g>
<!-- DeviseController&#45;&gt;Devise::UnlocksController -->
<g id="edge10" class="edge"><title>DeviseController&#45;&gt;Devise::UnlocksController</title>
<path fill="none" stroke="black" d="M-5.82547,183.607C74.0583,233.72 187.162,304.674 271.447,357.549"/>
</g>
<!-- Commontator::ApplicationController -->
<g id="node14" class="node"><title>Commontator::ApplicationController</title>
<path fill="none" stroke="black" d="M542.403,-319C542.403,-319 743.597,-319 743.597,-319 749.597,-319 755.597,-325 755.597,-331 755.597,-331 755.597,-439 755.597,-439 755.597,-445 749.597,-451 743.597,-451 743.597,-451 542.403,-451 542.403,-451 536.403,-451 530.403,-445 530.403,-439 530.403,-439 530.403,-331 530.403,-331 530.403,-325 536.403,-319 542.403,-319"/>
<text text-anchor="middle" x="643" y="-435.8" font-family="Times,serif" font-size="14.00">Commontator::ApplicationController</text>
<polyline fill="none" stroke="black" points="530.403,-429 755.597,-429 "/>
<polyline fill="none" stroke="black" points="530.403,-405 755.597,-405 "/>
<text text-anchor="start" x="538.403" y="-389.8" font-family="Times,serif" font-size="14.00">ensure_user</text>
<text text-anchor="start" x="538.403" y="-375.8" font-family="Times,serif" font-size="14.00">security_transgression_unless</text>
<text text-anchor="start" x="538.403" y="-361.8" font-family="Times,serif" font-size="14.00">set_thread</text>
<text text-anchor="start" x="538.403" y="-347.8" font-family="Times,serif" font-size="14.00">set_user</text>
<polyline fill="none" stroke="black" points="530.403,-341 755.597,-341 "/>
<text text-anchor="start" x="538.403" y="-325.8" font-family="Times,serif" font-size="14.00">_layout</text>
</g>
<!-- Commontator::CommentsController -->
<g id="node15" class="node"><title>Commontator::CommentsController</title>
<path fill="none" stroke="black" d="M542.117,264C542.117,264 737.883,264 737.883,264 743.883,264 749.883,258 749.883,252 749.883,252 749.883,62 749.883,62 749.883,56 743.883,50 737.883,50 737.883,50 542.117,50 542.117,50 536.117,50 530.117,56 530.117,62 530.117,62 530.117,252 530.117,252 530.117,258 536.117,264 542.117,264"/>
<text text-anchor="middle" x="640" y="65.2" font-family="Times,serif" font-size="14.00">Commontator::CommentsController</text>
<polyline fill="none" stroke="black" points="530.117,72 749.883,72 "/>
<text text-anchor="start" x="538.117" y="87.2" font-family="Times,serif" font-size="14.00">upvote</text>
<text text-anchor="start" x="538.117" y="101.2" font-family="Times,serif" font-size="14.00">delete</text>
<text text-anchor="start" x="538.117" y="115.2" font-family="Times,serif" font-size="14.00">downvote</text>
<text text-anchor="start" x="538.117" y="129.2" font-family="Times,serif" font-size="14.00">edit</text>
<text text-anchor="start" x="538.117" y="143.2" font-family="Times,serif" font-size="14.00">new</text>
<text text-anchor="start" x="538.117" y="157.2" font-family="Times,serif" font-size="14.00">undelete</text>
<text text-anchor="start" x="538.117" y="171.2" font-family="Times,serif" font-size="14.00">unvote</text>
<text text-anchor="start" x="538.117" y="185.2" font-family="Times,serif" font-size="14.00">update</text>
<text text-anchor="start" x="538.117" y="199.2" font-family="Times,serif" font-size="14.00">create</text>
<polyline fill="none" stroke="black" points="530.117,206 749.883,206 "/>
<text text-anchor="start" x="538.117" y="221.2" font-family="Times,serif" font-size="14.00">set_comment_and_thread</text>
<text text-anchor="start" x="538.117" y="235.2" font-family="Times,serif" font-size="14.00">subscribe_mentioned</text>
<polyline fill="none" stroke="black" points="530.117,242 749.883,242 "/>
<text text-anchor="start" x="538.117" y="257.2" font-family="Times,serif" font-size="14.00">_layout</text>
</g>
<!-- Commontator::SubscriptionsController -->
<g id="node16" class="node"><title>Commontator::SubscriptionsController</title>
<path fill="none" stroke="black" d="M542.338,-531C542.338,-531 753.662,-531 753.662,-531 759.662,-531 765.662,-537 765.662,-543 765.662,-543 765.662,-623 765.662,-623 765.662,-629 759.662,-635 753.662,-635 753.662,-635 542.338,-635 542.338,-635 536.338,-635 530.338,-629 530.338,-623 530.338,-623 530.338,-543 530.338,-543 530.338,-537 536.338,-531 542.338,-531"/>
<text text-anchor="middle" x="648" y="-619.8" font-family="Times,serif" font-size="14.00">Commontator::SubscriptionsController</text>
<polyline fill="none" stroke="black" points="530.338,-613 765.662,-613 "/>
<text text-anchor="start" x="538.338" y="-597.8" font-family="Times,serif" font-size="14.00">subscribe</text>
<text text-anchor="start" x="538.338" y="-583.8" font-family="Times,serif" font-size="14.00">unsubscribe</text>
<polyline fill="none" stroke="black" points="530.338,-577 765.662,-577 "/>
<polyline fill="none" stroke="black" points="530.338,-553 765.662,-553 "/>
<text text-anchor="start" x="538.338" y="-537.8" font-family="Times,serif" font-size="14.00">_layout</text>
</g>
<!-- Commontator::ThreadsController -->
<g id="node17" class="node"><title>Commontator::ThreadsController</title>
<path fill="none" stroke="black" d="M594.907,582C594.907,582 775.093,582 775.093,582 781.093,582 787.093,576 787.093,570 787.093,570 787.093,464 787.093,464 787.093,458 781.093,452 775.093,452 775.093,452 594.907,452 594.907,452 588.907,452 582.907,458 582.907,464 582.907,464 582.907,570 582.907,570 582.907,576 588.907,582 594.907,582"/>
<text text-anchor="middle" x="685" y="467.2" font-family="Times,serif" font-size="14.00">Commontator::ThreadsController</text>
<polyline fill="none" stroke="black" points="582.907,474 787.093,474 "/>
<text text-anchor="start" x="590.907" y="489.2" font-family="Times,serif" font-size="14.00">close</text>
<text text-anchor="start" x="590.907" y="503.2" font-family="Times,serif" font-size="14.00">mentions</text>
<text text-anchor="start" x="590.907" y="517.2" font-family="Times,serif" font-size="14.00">reopen</text>
<text text-anchor="start" x="590.907" y="531.2" font-family="Times,serif" font-size="14.00">show</text>
<polyline fill="none" stroke="black" points="582.907,538 787.093,538 "/>
<text text-anchor="start" x="590.907" y="553.2" font-family="Times,serif" font-size="14.00">serialized_mentions</text>
<polyline fill="none" stroke="black" points="582.907,560 787.093,560 "/>
<text text-anchor="start" x="590.907" y="575.2" font-family="Times,serif" font-size="14.00">_layout</text>
</g>
</g>
</svg>
