<?xml version="1.0" encoding="UTF-8" standalone="no"?>
<!DOCTYPE svg PUBLIC "-//W3C//DTD SVG 1.1//EN"
 "http://www.w3.org/Graphics/SVG/1.1/DTD/svg11.dtd">
<!-- Generated by graphviz version 2.38.0 (20140413.2041)
 -->
<!-- Title: models_diagram Pages: 1 -->
<svg width="682pt" height="816pt"
 viewBox="0.00 0.00 681.62 816.00" xmlns="http://www.w3.org/2000/svg" xmlns:xlink="http://www.w3.org/1999/xlink">
<g id="graph0" class="graph" transform="scale(1 1) rotate(0) translate(4 812)">
<title>models_diagram</title>
<polygon fill="none" stroke="none" points="-4,4 -4,-812 677.615,-812 677.615,4 -4,4"/>
<!-- _diagram_info -->
<g id="node1" class="node"><title>_diagram_info</title>
<text text-anchor="start" x="8" y="-709.6" font-family="Times,serif" font-size="13.00">Models diagram</text>
<text text-anchor="start" x="8" y="-696.6" font-family="Times,serif" font-size="13.00">Date: Nov 26 2016 &#45; 22:25</text>
<text text-anchor="start" x="8" y="-683.6" font-family="Times,serif" font-size="13.00">Migration version: 20161123210806</text>
<text text-anchor="start" x="8" y="-670.6" font-family="Times,serif" font-size="13.00">Generated by RailRoady 1.5.2</text>
<text text-anchor="start" x="8" y="-657.6" font-family="Times,serif" font-size="13.00">http://railroady.prestonlee.com</text>
</g>
<!-- Follow -->
<g id="node2" class="node"><title>Follow</title>
<path fill="none" stroke="black" d="M93.9443,-429.5C93.9443,-429.5 202.955,-429.5 202.955,-429.5 208.955,-429.5 214.955,-435.5 214.955,-441.5 214.955,-441.5 214.955,-517.5 214.955,-517.5 214.955,-523.5 208.955,-529.5 202.955,-529.5 202.955,-529.5 93.9443,-529.5 93.9443,-529.5 87.9443,-529.5 81.9443,-523.5 81.9443,-517.5 81.9443,-517.5 81.9443,-441.5 81.9443,-441.5 81.9443,-435.5 87.9443,-429.5 93.9443,-429.5"/>
<text text-anchor="middle" x="148.45" y="-514.3" font-family="Times,serif" font-size="14.00">Follow</text>
<polyline fill="none" stroke="black" points="81.9443,-507.5 214.955,-507.5 "/>
<text text-anchor="start" x="89.9443" y="-492.3" font-family="Times,serif" font-size="14.00">id :INTEGER</text>
<text text-anchor="start" x="89.9443" y="-478.3" font-family="Times,serif" font-size="14.00">created_at :datetime</text>
<text text-anchor="start" x="89.9443" y="-464.3" font-family="Times,serif" font-size="14.00">updated_at :datetime</text>
<text text-anchor="start" x="89.9443" y="-450.3" font-family="Times,serif" font-size="14.00">user_id :integer</text>
<text text-anchor="start" x="89.9443" y="-436.3" font-family="Times,serif" font-size="14.00">follows :integer</text>
</g>
<!-- Like -->
<g id="node3" class="node"><title>Like</title>
<path fill="none" stroke="black" d="M283.944,-257.5C283.944,-257.5 392.955,-257.5 392.955,-257.5 398.955,-257.5 404.955,-263.5 404.955,-269.5 404.955,-269.5 404.955,-345.5 404.955,-345.5 404.955,-351.5 398.955,-357.5 392.955,-357.5 392.955,-357.5 283.944,-357.5 283.944,-357.5 277.944,-357.5 271.944,-351.5 271.944,-345.5 271.944,-345.5 271.944,-269.5 271.944,-269.5 271.944,-263.5 277.944,-257.5 283.944,-257.5"/>
<text text-anchor="middle" x="338.45" y="-342.3" font-family="Times,serif" font-size="14.00">Like</text>
<polyline fill="none" stroke="black" points="271.944,-335.5 404.955,-335.5 "/>
<text text-anchor="start" x="279.944" y="-320.3" font-family="Times,serif" font-size="14.00">id :INTEGER</text>
<text text-anchor="start" x="279.944" y="-306.3" font-family="Times,serif" font-size="14.00">created_at :datetime</text>
<text text-anchor="start" x="279.944" y="-292.3" font-family="Times,serif" font-size="14.00">updated_at :datetime</text>
<text text-anchor="start" x="279.944" y="-278.3" font-family="Times,serif" font-size="14.00">user_id :integer</text>
<text text-anchor="start" x="279.944" y="-264.3" font-family="Times,serif" font-size="14.00">post_id :integer</text>
</g>
<!-- Post -->
<g id="node4" class="node"><title>Post</title>
<path fill="none" stroke="black" d="M367.944,-429.5C367.944,-429.5 476.955,-429.5 476.955,-429.5 482.955,-429.5 488.955,-435.5 488.955,-441.5 488.955,-441.5 488.955,-517.5 488.955,-517.5 488.955,-523.5 482.955,-529.5 476.955,-529.5 476.955,-529.5 367.944,-529.5 367.944,-529.5 361.944,-529.5 355.944,-523.5 355.944,-517.5 355.944,-517.5 355.944,-441.5 355.944,-441.5 355.944,-435.5 361.944,-429.5 367.944,-429.5"/>
<text text-anchor="middle" x="422.45" y="-514.3" font-family="Times,serif" font-size="14.00">Post</text>
<polyline fill="none" stroke="black" points="355.944,-507.5 488.955,-507.5 "/>
<text text-anchor="start" x="363.944" y="-492.3" font-family="Times,serif" font-size="14.00">id :INTEGER</text>
<text text-anchor="start" x="363.944" y="-478.3" font-family="Times,serif" font-size="14.00">post_text :text</text>
<text text-anchor="start" x="363.944" y="-464.3" font-family="Times,serif" font-size="14.00">created_at :datetime</text>
<text text-anchor="start" x="363.944" y="-450.3" font-family="Times,serif" font-size="14.00">updated_at :datetime</text>
<text text-anchor="start" x="363.944" y="-436.3" font-family="Times,serif" font-size="14.00">user_id :integer</text>
</g>
<!-- Post&#45;&gt;Like -->
<g id="edge1" class="edge"><title>Post&#45;&gt;Like</title>
<path fill="none" stroke="#c2ae33" d="M394.564,-422.065C385.782,-404.292 376.069,-384.634 367.227,-366.739"/>
<ellipse fill="none" stroke="#c2ae33" cx="396.381" cy="-425.743" rx="4.00002" ry="4.00002"/>
<polygon fill="#c2ae33" stroke="#c2ae33" points="367.121,-366.526 366.726,-355.567 364.906,-362.043 362.691,-357.561 362.691,-357.561 362.691,-357.561 364.906,-362.043 358.657,-359.554 367.121,-366.526 367.121,-366.526"/>
</g>
<!-- Commontator::Thread -->
<g id="node8" class="node"><title>Commontator::Thread</title>
<path fill="none" stroke="black" d="M435.12,-236.5C435.12,-236.5 583.779,-236.5 583.779,-236.5 589.779,-236.5 595.779,-242.5 595.779,-248.5 595.779,-248.5 595.779,-366.5 595.779,-366.5 595.779,-372.5 589.779,-378.5 583.779,-378.5 583.779,-378.5 435.12,-378.5 435.12,-378.5 429.12,-378.5 423.12,-372.5 423.12,-366.5 423.12,-366.5 423.12,-248.5 423.12,-248.5 423.12,-242.5 429.12,-236.5 435.12,-236.5"/>
<text text-anchor="middle" x="509.45" y="-363.3" font-family="Times,serif" font-size="14.00">Commontator::Thread</text>
<polyline fill="none" stroke="black" points="423.12,-356.5 595.779,-356.5 "/>
<text text-anchor="start" x="431.12" y="-341.3" font-family="Times,serif" font-size="14.00">updated_at :datetime</text>
<text text-anchor="start" x="431.12" y="-327.3" font-family="Times,serif" font-size="14.00">commontable_type :varchar</text>
<text text-anchor="start" x="431.12" y="-313.3" font-family="Times,serif" font-size="14.00">commontable_id :integer</text>
<text text-anchor="start" x="431.12" y="-299.3" font-family="Times,serif" font-size="14.00">closed_at :datetime</text>
<text text-anchor="start" x="431.12" y="-285.3" font-family="Times,serif" font-size="14.00">closer_type :varchar</text>
<text text-anchor="start" x="431.12" y="-271.3" font-family="Times,serif" font-size="14.00">closer_id :integer</text>
<text text-anchor="start" x="431.12" y="-257.3" font-family="Times,serif" font-size="14.00">created_at :datetime</text>
<text text-anchor="start" x="431.12" y="-243.3" font-family="Times,serif" font-size="14.00">id :INTEGER</text>
</g>
<!-- Post&#45;&gt;Commontator::Thread -->
<g id="edge2" class="edge"><title>Post&#45;&gt;Commontator::Thread</title>
<path fill="none" stroke="#85fe69" d="M451.275,-422.174C457.222,-410.553 463.584,-398.123 469.838,-385.903"/>
<ellipse fill="none" stroke="#85fe69" cx="449.436" cy="-425.768" rx="4.00002" ry="4.00002"/>
<ellipse fill="#85fe69" stroke="#85fe69" cx="471.681" cy="-382.301" rx="4.00002" ry="4.00002"/>
<text text-anchor="middle" x="479.939" y="-399.8" font-family="Times,serif" font-size="14.00">thread</text>
</g>
<!-- User -->
<g id="node5" class="node"><title>User</title>
<path fill="none" stroke="black" d="M237.172,-567.5C237.172,-567.5 417.728,-567.5 417.728,-567.5 423.728,-567.5 429.728,-573.5 429.728,-579.5 429.728,-579.5 429.728,-795.5 429.728,-795.5 429.728,-801.5 423.728,-807.5 417.728,-807.5 417.728,-807.5 237.172,-807.5 237.172,-807.5 231.172,-807.5 225.172,-801.5 225.172,-795.5 225.172,-795.5 225.172,-579.5 225.172,-579.5 225.172,-573.5 231.172,-567.5 237.172,-567.5"/>
<text text-anchor="middle" x="327.45" y="-792.3" font-family="Times,serif" font-size="14.00">User</text>
<polyline fill="none" stroke="black" points="225.172,-785.5 429.728,-785.5 "/>
<text text-anchor="start" x="233.172" y="-770.3" font-family="Times,serif" font-size="14.00">last_name :varchar</text>
<text text-anchor="start" x="233.172" y="-756.3" font-family="Times,serif" font-size="14.00">email :varchar</text>
<text text-anchor="start" x="233.172" y="-742.3" font-family="Times,serif" font-size="14.00">encrypted_password :varchar</text>
<text text-anchor="start" x="233.172" y="-728.3" font-family="Times,serif" font-size="14.00">reset_password_token :varchar</text>
<text text-anchor="start" x="233.172" y="-714.3" font-family="Times,serif" font-size="14.00">reset_password_sent_at :datetime</text>
<text text-anchor="start" x="233.172" y="-700.3" font-family="Times,serif" font-size="14.00">remember_created_at :datetime</text>
<text text-anchor="start" x="233.172" y="-686.3" font-family="Times,serif" font-size="14.00">sign_in_count :integer</text>
<text text-anchor="start" x="233.172" y="-672.3" font-family="Times,serif" font-size="14.00">current_sign_in_at :datetime</text>
<text text-anchor="start" x="233.172" y="-658.3" font-family="Times,serif" font-size="14.00">last_sign_in_at :datetime</text>
<text text-anchor="start" x="233.172" y="-644.3" font-family="Times,serif" font-size="14.00">current_sign_in_ip :varchar</text>
<text text-anchor="start" x="233.172" y="-630.3" font-family="Times,serif" font-size="14.00">last_sign_in_ip :varchar</text>
<text text-anchor="start" x="233.172" y="-616.3" font-family="Times,serif" font-size="14.00">created_at :datetime</text>
<text text-anchor="start" x="233.172" y="-602.3" font-family="Times,serif" font-size="14.00">updated_at :datetime</text>
<text text-anchor="start" x="233.172" y="-588.3" font-family="Times,serif" font-size="14.00">first_name :varchar</text>
<text text-anchor="start" x="233.172" y="-574.3" font-family="Times,serif" font-size="14.00">id :INTEGER</text>
</g>
<!-- User&#45;&gt;Follow -->
<g id="edge5" class="edge"><title>User&#45;&gt;Follow</title>
<path fill="none" stroke="#262c2d" d="M219.863,-562.685C212.331,-554.017 204.978,-545.555 198.028,-537.557"/>
<ellipse fill="none" stroke="#262c2d" cx="222.517" cy="-565.74" rx="4.00002" ry="4.00002"/>
<polygon fill="#262c2d" stroke="#262c2d" points="197.781,-537.272 194.618,-526.772 194.501,-533.498 191.222,-529.723 191.222,-529.723 191.222,-529.723 194.501,-533.498 187.825,-532.675 197.781,-537.272 197.781,-537.272"/>
</g>
<!-- User&#45;&gt;Like -->
<g id="edge4" class="edge"><title>User&#45;&gt;Like</title>
<path fill="none" stroke="#13fb1f" d="M331.158,-559.058C333.039,-494.438 335.233,-419.04 336.719,-367.965"/>
<ellipse fill="none" stroke="#13fb1f" cx="331.031" cy="-563.419" rx="4" ry="4"/>
<polygon fill="#13fb1f" stroke="#13fb1f" points="336.725,-367.762 341.514,-357.897 336.871,-362.764 337.016,-357.766 337.016,-357.766 337.016,-357.766 336.871,-362.764 332.518,-357.635 336.725,-367.762 336.725,-367.762"/>
</g>
<!-- User&#45;&gt;Post -->
<g id="edge3" class="edge"><title>User&#45;&gt;Post</title>
<path fill="none" stroke="#efc46c" d="M385.832,-559.902C389.105,-552.805 392.305,-545.866 395.366,-539.229"/>
<ellipse fill="none" stroke="#efc46c" cx="384.112" cy="-563.633" rx="4.00002" ry="4.00002"/>
<polygon fill="#efc46c" stroke="#efc46c" points="395.554,-538.821 403.828,-531.624 397.648,-534.28 399.742,-529.74 399.742,-529.74 399.742,-529.74 397.648,-534.28 395.656,-527.855 395.554,-538.821 395.554,-538.821"/>
</g>
<!-- Commontator::Comment -->
<g id="node6" class="node"><title>Commontator::Comment</title>
<path fill="none" stroke="black" d="M243.562,-0.5C243.562,-0.5 395.338,-0.5 395.338,-0.5 401.338,-0.5 407.338,-6.5 407.338,-12.5 407.338,-12.5 407.338,-186.5 407.338,-186.5 407.338,-192.5 401.338,-198.5 395.338,-198.5 395.338,-198.5 243.562,-198.5 243.562,-198.5 237.562,-198.5 231.562,-192.5 231.562,-186.5 231.562,-186.5 231.562,-12.5 231.562,-12.5 231.562,-6.5 237.562,-0.5 243.562,-0.5"/>
<text text-anchor="middle" x="319.45" y="-183.3" font-family="Times,serif" font-size="14.00">Commontator::Comment</text>
<polyline fill="none" stroke="black" points="231.562,-176.5 407.338,-176.5 "/>
<text text-anchor="start" x="239.562" y="-161.3" font-family="Times,serif" font-size="14.00">updated_at :datetime</text>
<text text-anchor="start" x="239.562" y="-147.3" font-family="Times,serif" font-size="14.00">creator_type :varchar</text>
<text text-anchor="start" x="239.562" y="-133.3" font-family="Times,serif" font-size="14.00">creator_id :integer</text>
<text text-anchor="start" x="239.562" y="-119.3" font-family="Times,serif" font-size="14.00">editor_type :varchar</text>
<text text-anchor="start" x="239.562" y="-105.3" font-family="Times,serif" font-size="14.00">editor_id :integer</text>
<text text-anchor="start" x="239.562" y="-91.3" font-family="Times,serif" font-size="14.00">thread_id :integer</text>
<text text-anchor="start" x="239.562" y="-77.3" font-family="Times,serif" font-size="14.00">body :text</text>
<text text-anchor="start" x="239.562" y="-63.3" font-family="Times,serif" font-size="14.00">deleted_at :datetime</text>
<text text-anchor="start" x="239.562" y="-49.3" font-family="Times,serif" font-size="14.00">cached_votes_up :integer</text>
<text text-anchor="start" x="239.562" y="-35.3" font-family="Times,serif" font-size="14.00">cached_votes_down :integer</text>
<text text-anchor="start" x="239.562" y="-21.3" font-family="Times,serif" font-size="14.00">created_at :datetime</text>
<text text-anchor="start" x="239.562" y="-7.3" font-family="Times,serif" font-size="14.00">id :INTEGER</text>
</g>
<!-- User&#45;&gt;Commontator::Comment -->
<g id="edge6" class="edge"><title>User&#45;&gt;Commontator::Comment</title>
<path fill="none" stroke="#433b39" d="M285.989,-559.48C262.036,-468.871 240.581,-344.384 262.45,-236 264.304,-226.809 266.8,-217.466 269.716,-208.203"/>
<ellipse fill="none" stroke="#433b39" cx="287.053" cy="-563.451" rx="4.00001" ry="4.00001"/>
<polygon fill="#433b39" stroke="#433b39" points="269.755,-208.083 277.168,-200.002 271.326,-203.336 272.896,-198.589 272.896,-198.589 272.896,-198.589 271.326,-203.336 268.624,-197.175 269.755,-208.083 269.755,-208.083"/>
<text text-anchor="middle" x="286.222" y="-399.8" font-family="Times,serif" font-size="14.00">comments</text>
</g>
<!-- Commontator::Subscription -->
<g id="node7" class="node"><title>Commontator::Subscription</title>
<path fill="none" stroke="black" d="M513.284,-42.5C513.284,-42.5 661.615,-42.5 661.615,-42.5 667.615,-42.5 673.615,-48.5 673.615,-54.5 673.615,-54.5 673.615,-144.5 673.615,-144.5 673.615,-150.5 667.615,-156.5 661.615,-156.5 661.615,-156.5 513.284,-156.5 513.284,-156.5 507.284,-156.5 501.284,-150.5 501.284,-144.5 501.284,-144.5 501.284,-54.5 501.284,-54.5 501.284,-48.5 507.284,-42.5 513.284,-42.5"/>
<text text-anchor="middle" x="587.45" y="-141.3" font-family="Times,serif" font-size="14.00">Commontator::Subscription</text>
<polyline fill="none" stroke="black" points="501.284,-134.5 673.615,-134.5 "/>
<text text-anchor="start" x="509.284" y="-119.3" font-family="Times,serif" font-size="14.00">id :INTEGER</text>
<text text-anchor="start" x="509.284" y="-105.3" font-family="Times,serif" font-size="14.00">subscriber_type :varchar</text>
<text text-anchor="start" x="509.284" y="-91.3" font-family="Times,serif" font-size="14.00">subscriber_id :integer</text>
<text text-anchor="start" x="509.284" y="-77.3" font-family="Times,serif" font-size="14.00">thread_id :integer</text>
<text text-anchor="start" x="509.284" y="-63.3" font-family="Times,serif" font-size="14.00">created_at :datetime</text>
<text text-anchor="start" x="509.284" y="-49.3" font-family="Times,serif" font-size="14.00">updated_at :datetime</text>
</g>
<!-- User&#45;&gt;Commontator::Subscription -->
<g id="edge7" class="edge"><title>User&#45;&gt;Commontator::Subscription</title>
<path fill="none" stroke="#05dd52" d="M436.207,-606.317C500.717,-550.96 575.405,-470.926 604.45,-379 626.581,-308.955 616.527,-224.17 604.654,-166.687"/>
<ellipse fill="none" stroke="#05dd52" cx="433.045" cy="-609.006" rx="4.00002" ry="4.00002"/>
<polygon fill="#05dd52" stroke="#05dd52" points="604.596,-166.415 606.902,-155.694 603.549,-161.526 602.502,-156.637 602.502,-156.637 602.502,-156.637 603.549,-161.526 598.101,-157.579 604.596,-166.415 604.596,-166.415"/>
<text text-anchor="middle" x="634.395" y="-399.8" font-family="Times,serif" font-size="14.00">subscriptions</text>
</g>
<!-- Commontator::Thread&#45;&gt;Commontator::Comment -->
<g id="edge8" class="edge"><title>Commontator::Thread&#45;&gt;Commontator::Comment</title>
<path fill="none" stroke="#adb36c" d="M439.161,-230.293C431.083,-221.534 422.748,-212.497 414.414,-203.461"/>
<ellipse fill="none" stroke="#adb36c" cx="442.147" cy="-233.53" rx="4.00002" ry="4.00002"/>
<polygon fill="#adb36c" stroke="#adb36c" points="414.199,-203.228 410.727,-192.826 410.809,-199.553 407.419,-195.877 407.419,-195.877 407.419,-195.877 410.809,-199.553 404.111,-198.928 414.199,-203.228 414.199,-203.228"/>
</g>
<!-- Commontator::Thread&#45;&gt;Commontator::Subscription -->
<g id="edge9" class="edge"><title>Commontator::Thread&#45;&gt;Commontator::Subscription</title>
<path fill="none" stroke="#4845fe" d="M538.882,-228.767C546.678,-208.179 555.017,-186.155 562.546,-166.27"/>
<ellipse fill="none" stroke="#4845fe" cx="537.382" cy="-232.73" rx="4.00001" ry="4.00001"/>
<polygon fill="#4845fe" stroke="#4845fe" points="562.63,-166.048 570.38,-158.29 564.401,-161.372 566.171,-156.696 566.171,-156.696 566.171,-156.696 564.401,-161.372 561.963,-155.103 562.63,-166.048 562.63,-166.048"/>
</g>
</g>
</svg>
