<?xml version="1.0" encoding="UTF-8" standalone="no"?>
<!DOCTYPE svg PUBLIC "-//W3C//DTD SVG 1.1//EN"
 "http://www.w3.org/Graphics/SVG/1.1/DTD/svg11.dtd">
<!-- Generated by graphviz version 2.38.0 (20140413.2041)
 -->
<!-- Title: models_diagram Pages: 1 -->
<svg width="581pt" height="313pt"
 viewBox="0.00 0.00 581.31 313.00" xmlns="http://www.w3.org/2000/svg" xmlns:xlink="http://www.w3.org/1999/xlink">
<g id="graph0" class="graph" transform="scale(1 1) rotate(0) translate(4 309)">
<title>models_diagram</title>
<polygon fill="none" stroke="none" points="-4,4 -4,-309 577.307,-309 577.307,4 -4,4"/>
<!-- _diagram_info -->
<g id="node1" class="node"><title>_diagram_info</title>
<text text-anchor="start" x="8" y="-290.6" font-family="Times,serif" font-size="13.00">Models diagram</text>
<text text-anchor="start" x="8" y="-277.6" font-family="Times,serif" font-size="13.00">Date: Nov 26 2016 &#45; 22:25</text>
<text text-anchor="start" x="8" y="-264.6" font-family="Times,serif" font-size="13.00">Migration version: 20161123210806</text>
<text text-anchor="start" x="8" y="-251.6" font-family="Times,serif" font-size="13.00">Generated by RailRoady 1.5.2</text>
<text text-anchor="start" x="8" y="-238.6" font-family="Times,serif" font-size="13.00">http://railroady.prestonlee.com</text>
</g>
<!-- Follow -->
<g id="node2" class="node"><title>Follow</title>
<ellipse fill="none" stroke="black" cx="115.45" cy="-177" rx="35.3389" ry="18"/>
<text text-anchor="middle" x="115.45" y="-172.8" font-family="Times,serif" font-size="14.00">Follow</text>
</g>
<!-- Like -->
<g id="node3" class="node"><title>Like</title>
<ellipse fill="none" stroke="black" cx="233.45" cy="-91" rx="27" ry="18"/>
<text text-anchor="middle" x="233.45" y="-86.8" font-family="Times,serif" font-size="14.00">Like</text>
</g>
<!-- Post -->
<g id="node4" class="node"><title>Post</title>
<ellipse fill="none" stroke="black" cx="306.45" cy="-177" rx="27" ry="18"/>
<text text-anchor="middle" x="306.45" y="-172.8" font-family="Times,serif" font-size="14.00">Post</text>
</g>
<!-- Post&#45;&gt;Like -->
<g id="edge1" class="edge"><title>Post&#45;&gt;Like</title>
<path fill="none" stroke="#201c69" d="M288.848,-154.55C281.674,-145.918 273.248,-135.915 265.45,-127 261.882,-122.922 258.034,-118.627 254.285,-114.497"/>
<ellipse fill="none" stroke="#201c69" cx="291.507" cy="-157.762" rx="4.00002" ry="4.00002"/>
<polygon fill="#201c69" stroke="#201c69" points="254.048,-114.237 250.62,-103.821 250.673,-110.547 247.299,-106.858 247.299,-106.858 247.299,-106.858 250.673,-110.547 243.978,-109.894 254.048,-114.237 254.048,-114.237"/>
</g>
<!-- Commontator::Thread -->
<g id="node8" class="node"><title>Commontator::Thread</title>
<ellipse fill="none" stroke="black" cx="367.45" cy="-91" rx="89.3774" ry="18"/>
<text text-anchor="middle" x="367.45" y="-86.8" font-family="Times,serif" font-size="14.00">Commontator::Thread</text>
</g>
<!-- Post&#45;&gt;Commontator::Thread -->
<g id="edge2" class="edge"><title>Post&#45;&gt;Commontator::Thread</title>
<path fill="none" stroke="#8f4b58" d="M322.392,-154.046C330.925,-142.297 341.443,-127.813 350.17,-115.795"/>
<ellipse fill="none" stroke="#8f4b58" cx="319.988" cy="-157.356" rx="4.00002" ry="4.00002"/>
<ellipse fill="#8f4b58" stroke="#8f4b58" cx="352.723" cy="-112.28" rx="4.00002" ry="4.00002"/>
<text text-anchor="middle" x="357.939" y="-129.8" font-family="Times,serif" font-size="14.00">thread</text>
</g>
<!-- User -->
<g id="node5" class="node"><title>User</title>
<ellipse fill="none" stroke="black" cx="251.45" cy="-268.5" rx="27" ry="18"/>
<text text-anchor="middle" x="251.45" y="-264.3" font-family="Times,serif" font-size="14.00">User</text>
</g>
<!-- User&#45;&gt;Follow -->
<g id="edge5" class="edge"><title>User&#45;&gt;Follow</title>
<path fill="none" stroke="#2fe647" d="M233.153,-246.403C227.843,-241.175 221.762,-235.947 215.45,-232 195.07,-219.255 185.698,-225.237 164.45,-214 156.401,-209.744 148.214,-204.269 140.895,-198.88"/>
<ellipse fill="none" stroke="#2fe647" cx="236.223" cy="-249.583" rx="4.00002" ry="4.00002"/>
<polygon fill="#2fe647" stroke="#2fe647" points="140.711,-198.739 135.493,-189.094 136.737,-195.705 132.763,-192.671 132.763,-192.671 132.763,-192.671 136.737,-195.705 130.032,-196.248 140.711,-198.739 140.711,-198.739"/>
</g>
<!-- User&#45;&gt;Like -->
<g id="edge4" class="edge"><title>User&#45;&gt;Like</title>
<path fill="none" stroke="#3a6d18" d="M249.028,-242.075C246.32,-213.923 241.75,-167.202 237.45,-127 237.177,-124.446 236.885,-121.788 236.589,-119.128"/>
<ellipse fill="none" stroke="#3a6d18" cx="249.424" cy="-246.206" rx="4" ry="4"/>
<polygon fill="#3a6d18" stroke="#3a6d18" points="236.577,-119.021 239.924,-108.578 236.015,-114.053 235.452,-109.084 235.452,-109.084 235.452,-109.084 236.015,-114.053 230.981,-109.591 236.577,-119.021 236.577,-119.021"/>
</g>
<!-- User&#45;&gt;Post -->
<g id="edge3" class="edge"><title>User&#45;&gt;Post</title>
<path fill="none" stroke="#e43a54" d="M265.533,-244.583C273.465,-231.675 283.37,-215.556 291.448,-202.411"/>
<ellipse fill="none" stroke="#e43a54" cx="263.377" cy="-248.091" rx="4.00002" ry="4.00002"/>
<polygon fill="#e43a54" stroke="#e43a54" points="291.466,-202.382 300.536,-196.218 294.084,-198.122 296.702,-193.862 296.702,-193.862 296.702,-193.862 294.084,-198.122 292.868,-191.506 291.466,-202.382 291.466,-202.382"/>
</g>
<!-- Commontator::Comment -->
<g id="node6" class="node"><title>Commontator::Comment</title>
<ellipse fill="none" stroke="black" cx="218.45" cy="-18" rx="99.0589" ry="18"/>
<text text-anchor="middle" x="218.45" y="-13.8" font-family="Times,serif" font-size="14.00">Commontator::Comment</text>
</g>
<!-- User&#45;&gt;Commontator::Comment -->
<g id="edge6" class="edge"><title>User&#45;&gt;Commontator::Comment</title>
<path fill="none" stroke="#f48a09" d="M233.695,-246.131C215.108,-222.245 187.097,-181.572 175.905,-141 166.554,-107.105 184.605,-68.9781 200.007,-44.5097"/>
<ellipse fill="none" stroke="#f48a09" cx="236.183" cy="-249.272" rx="4.00002" ry="4.00002"/>
<polygon fill="#f48a09" stroke="#f48a09" points="200.012,-44.5019 209.266,-38.6184 202.759,-40.324 205.506,-36.1461 205.506,-36.1461 205.506,-36.1461 202.759,-40.324 201.746,-33.6739 200.012,-44.5019 200.012,-44.5019"/>
<text text-anchor="middle" x="204.222" y="-129.8" font-family="Times,serif" font-size="14.00">comments</text>
</g>
<!-- Commontator::Subscription -->
<g id="node7" class="node"><title>Commontator::Subscription</title>
<ellipse fill="none" stroke="black" cx="464.45" cy="-18" rx="108.715" ry="18"/>
<text text-anchor="middle" x="464.45" y="-13.8" font-family="Times,serif" font-size="14.00">Commontator::Subscription</text>
</g>
<!-- User&#45;&gt;Commontator::Subscription -->
<g id="edge7" class="edge"><title>User&#45;&gt;Commontator::Subscription</title>
<path fill="none" stroke="#2d4ef0" d="M281.985,-255.671C331.275,-234.696 426.751,-185.819 465.45,-109 475.192,-89.6616 474.094,-64.8882 471.037,-46.23"/>
<ellipse fill="none" stroke="#2d4ef0" cx="278.179" cy="-257.258" rx="4.00002" ry="4.00002"/>
<polygon fill="#2d4ef0" stroke="#2d4ef0" points="471.017,-46.1247 473.556,-35.4567 470.076,-41.2139 469.136,-36.3031 469.136,-36.3031 469.136,-36.3031 470.076,-41.2139 464.716,-37.1495 471.017,-46.1247 471.017,-46.1247"/>
<text text-anchor="middle" x="491.395" y="-129.8" font-family="Times,serif" font-size="14.00">subscriptions</text>
</g>
<!-- Commontator::Thread&#45;&gt;Commontator::Comment -->
<g id="edge8" class="edge"><title>Commontator::Thread&#45;&gt;Commontator::Comment</title>
<path fill="none" stroke="#f2275f" d="M326.963,-70.7077C306.564,-60.9875 281.833,-49.203 261.136,-39.3405"/>
<ellipse fill="none" stroke="#f2275f" cx="330.771" cy="-72.5221" rx="4.00002" ry="4.00002"/>
<polygon fill="#f2275f" stroke="#f2275f" points="260.968,-39.2604 253.876,-30.8963 256.454,-37.1095 251.94,-34.9587 251.94,-34.9587 251.94,-34.9587 256.454,-37.1095 250.005,-39.021 260.968,-39.2604 260.968,-39.2604"/>
</g>
<!-- Commontator::Thread&#45;&gt;Commontator::Subscription -->
<g id="edge9" class="edge"><title>Commontator::Thread&#45;&gt;Commontator::Subscription</title>
<path fill="none" stroke="#775740" d="M396.784,-68.5287C408.391,-60.0328 421.743,-50.2594 433.504,-41.6512"/>
<ellipse fill="none" stroke="#775740" cx="393.175" cy="-71.1701" rx="4.00002" ry="4.00002"/>
<polygon fill="#775740" stroke="#775740" points="433.669,-41.5304 444.396,-39.2551 437.703,-38.5772 441.738,-35.6239 441.738,-35.6239 441.738,-35.6239 437.703,-38.5772 439.08,-31.9927 433.669,-41.5304 433.669,-41.5304"/>
</g>
</g>
</svg>
